<svg width="24" height="24" viewBox="0 0 24 24" fill="none" xmlns="http://www.w3.org/2000/svg">
<path d="M16.3627 14.6366C15.4007 13.6706 14.2308 12.9369 12.9423 12.4916C13.8581 11.8633 14.5487 10.9584 14.9132 9.90935C15.2777 8.86031 15.2969 7.72215 14.968 6.66141C14.6391 5.60068 13.9793 4.67304 13.0853 4.01422C12.1912 3.35541 11.1098 3 9.99927 3C8.88871 3 7.80729 3.35541 6.91326 4.01422C6.01922 4.67304 5.35948 5.60068 5.03058 6.66141C4.70167 7.72215 4.72086 8.86031 5.08534 9.90935C5.44982 10.9584 6.14045 11.8633 7.05619 12.4916C5.2883 13.1055 3.75535 14.2545 2.67011 15.7792C1.58487 17.3039 1.00117 19.1285 1 21H2.4068C2.4068 18.9864 3.20672 17.0552 4.63058 15.6313C6.05445 14.2075 7.98562 13.4075 9.99927 13.4075C12.0129 13.4075 13.9441 14.2075 15.368 15.6313C16.7918 17.0552 17.5917 18.9864 17.5917 21H18.9985C19.0014 19.8178 18.7699 18.6467 18.3175 17.5545C17.8651 16.4622 17.2007 15.4705 16.3627 14.6366ZM9.99927 12.0007C9.24825 12.0007 8.5141 11.778 7.88966 11.3608C7.26521 10.9436 6.77851 10.3505 6.49111 9.65666C6.20371 8.96281 6.12851 8.19932 6.27503 7.46274C6.42154 6.72615 6.78319 6.04956 7.31424 5.51851C7.84529 4.98746 8.52188 4.62581 9.25847 4.4793C9.99505 4.33278 10.7585 4.40798 11.4524 4.69538C12.1462 4.98278 12.7393 5.46948 13.1565 6.09392C13.5738 6.71837 13.7965 7.45252 13.7965 8.20354C13.7954 9.2103 13.3951 10.1755 12.6832 10.8874C11.9713 11.5993 11.006 11.9997 9.99927 12.0007Z" fill="black"/>
<path d="M19.8678 7.56204H18.5151V14.5381H19.8678V7.56204Z" fill="#EC2B60"/>
<path d="M22.6796 10.3739H15.7036V11.7266H22.6796V10.3739Z" fill="#EC2B60"/>
</svg>
