<svg width="24" height="24" viewBox="0 0 24 24" fill="none" xmlns="http://www.w3.org/2000/svg">
<path d="M16.297 14.6386C15.3386 13.6774 14.1739 12.947 12.8913 12.5028C13.8031 11.8772 14.4908 10.9762 14.8537 9.93163C15.2166 8.88707 15.2357 7.75378 14.9082 6.69758C14.5807 5.64138 13.9238 4.7177 13.0336 4.0617C12.1434 3.40571 11.0666 3.05182 9.96079 3.05182C8.85498 3.05182 7.77819 3.40571 6.88797 4.0617C5.99776 4.7177 5.34084 5.64138 5.01334 6.69758C4.68584 7.75378 4.70495 8.88707 5.06787 9.93163C5.43079 10.9762 6.11847 11.8772 7.0303 12.5028C5.26996 13.1141 3.74357 14.2582 2.66297 15.7764C1.58237 17.2945 1.00116 19.1114 1 20.9749H2.40078C2.40078 18.9698 3.19728 17.0469 4.61506 15.6291C6.03283 14.2113 7.95575 13.4149 9.96079 13.4149C11.9658 13.4149 13.8887 14.2113 15.3065 15.6291C16.7243 17.0469 17.5208 18.9698 17.5208 20.9749H18.9216C18.9243 19.7977 18.6938 18.6317 18.2433 17.5441C17.7928 16.4566 17.1313 15.4691 16.297 14.6386ZM9.96079 12.0141C9.21298 12.0141 8.48197 11.7923 7.8602 11.3769C7.23842 10.9614 6.7538 10.3709 6.46763 9.68002C6.18146 8.98914 6.10658 8.22891 6.25247 7.49547C6.39836 6.76204 6.75846 6.08834 7.28724 5.55956C7.81602 5.03078 8.48972 4.67068 9.22316 4.52479C9.95659 4.3789 10.7168 4.45378 11.4077 4.73995C12.0986 5.02612 12.6891 5.51074 13.1045 6.13251C13.52 6.75429 13.7417 7.4853 13.7417 8.2331C13.7407 9.23556 13.3421 10.1967 12.6332 10.9055C11.9244 11.6144 10.9632 12.013 9.96079 12.0141Z" fill="black"/>
<path d="M17.1453 12.3104C17.0116 12.3103 16.881 12.2705 16.7699 12.196C16.6589 12.1215 16.5724 12.0158 16.5216 11.8921C16.4707 11.7685 16.4576 11.6326 16.484 11.5015C16.5105 11.3704 16.5752 11.2502 16.6701 11.1559C17.4446 10.3797 17.8796 9.32783 17.8796 8.23122C17.8796 7.13462 17.4446 6.08279 16.6701 5.30651C16.5438 5.17893 16.4733 5.0064 16.4742 4.82688C16.4751 4.64736 16.5473 4.47554 16.6749 4.34924C16.8025 4.22294 16.975 4.15249 17.1545 4.15339C17.334 4.15429 17.5058 4.22647 17.6322 4.35405C18.6589 5.38318 19.2355 6.77753 19.2355 8.23122C19.2355 9.68492 18.6589 11.0793 17.6322 12.1084C17.5686 12.1729 17.4928 12.224 17.4092 12.2587C17.3256 12.2934 17.2359 12.311 17.1453 12.3104Z" fill="black"/>
<path d="M19.8066 14.9677C19.7186 14.9686 19.6313 14.9521 19.5497 14.9191C19.4682 14.8861 19.3939 14.8372 19.3314 14.7753C19.2686 14.7129 19.2188 14.6387 19.1848 14.557C19.1508 14.4752 19.1333 14.3876 19.1333 14.2991C19.1333 14.2106 19.1508 14.1229 19.1848 14.0412C19.2188 13.9594 19.2686 13.8852 19.3314 13.8228C20.8096 12.3401 21.6397 10.3317 21.6397 8.23798C21.6397 6.14423 20.8096 4.13588 19.3314 2.65313C19.2688 2.58996 19.2194 2.51509 19.1857 2.43279C19.1521 2.3505 19.1351 2.26239 19.1355 2.1735C19.1364 1.99397 19.2086 1.82216 19.3362 1.69586C19.4638 1.56956 19.6363 1.49911 19.8158 1.50001C19.9953 1.50091 20.1671 1.57309 20.2935 1.70067C22.0268 3.43667 23.0004 5.7896 23.0004 8.24279C23.0004 10.696 22.0268 13.0489 20.2935 14.7849C20.2286 14.8463 20.1521 14.8941 20.0685 14.9255C19.9849 14.9569 19.8959 14.9712 19.8066 14.9677Z" fill="#EC2B60"/>
</svg>
